# xmcd CD database file
#
# Track frame offsets:
#	150
#	21035
#	36404
#	53448
#	73034
#	90173
#	102832
#	119471
#	140115
#	155380
#	172273
#	188446
#	233787
#	256865
#	275100
#	296297
#
# Disc length: 4215 seconds
#
# Revision: 2
# Processed by: cddbd v1.5.2PL0 Copyright (c) Steve Scherf et al.
# Submitted via: CDex 1.70beta2
#
DISCID=db107510
DTITLE=Zac Brown Band - You Get What You Give
DYEAR=2010
DGENRE=Country
TTITLE0=Let It Go
TTITLE1=Knee Deep (Featuring Jimmy Buffett)
TTITLE2=No Hurry
TTITLE3=I Play The Road
TTITLE4=Cold Hearted
TTITLE5=Whiskey's Gone
TTITLE6=Quiet Your Mind
TTITLE7=Colder Weather
TTITLE8=Settle Me Down
TTITLE9=As She's Walking Away (Featuring Alan Jackson)
TTITLE10=Keep Me In Mind
TTITLE11=Who Knows
TTITLE12=Martin
TTITLE13=Make This Day
TTITLE14=Oh My Sweet Carolina (Live)
TTITLE15=Nothing
EXTD=YEAR: 2010
EXTT0=
EXTT1=
EXTT2=
EXTT3=
EXTT4=
EXTT5=
EXTT6=
EXTT7=
EXTT8=
EXTT9=
EXTT10=
EXTT11=
EXTT12=
EXTT13=
EXTT14=
EXTT15=
PLAYORDER=
